<?xml version="1.0" encoding="UTF-8"?>
<!-- Generated by Pixelmator Pro 3.3.10 -->
<svg width="361" height="94" viewBox="0 0 361 94" xmlns="http://www.w3.org/2000/svg">
    <path id="Path" fill="#003c70" stroke="none" d="M 0.4 39.5 L 0.4 1.599998 L 7.799999 1.599998 L 7.799999 39.5 L 0.4 39.5 Z"/>
    <path id="path1" fill="#003c70" stroke="none" d="M 18.700001 15.599998 L 18.799999 15.599998 C 20.599998 13.200005 24 11.800003 27.099998 11.800003 C 30.400002 11.800003 33.299999 13.200005 34.900002 15.599998 C 37.099998 13.400002 40.5 11.800003 43.699997 11.800003 C 49.699997 11.700005 52.800003 15.5 52.900002 21.700005 L 52.900002 39.5 L 45.900002 39.5 L 45.900002 23 C 45.900002 19.900002 44.800003 16.599998 41.400002 16.599998 C 38 16.599998 35.900002 18.700005 35.900002 23.400002 L 35.900002 39.600006 L 28.900002 39.600006 L 28.900002 23 C 28.900002 19.200005 27.299999 16.599998 24.299999 16.599998 C 21 16.599998 18.900002 18.900002 18.900002 23.5 L 18.900002 39.5 L 11.900002 39.5 L 11.900002 12.400002 L 18.900002 12.400002 L 18.900002 15.599998 Z"/>
    <path id="path2" fill="#003c70" stroke="none" d="M 70.5 16.099998 C 74.5 16.099998 76.5 20.800003 76.5 25.400002 C 76.5 30.200005 74.900002 35.800003 70.199997 35.800003 C 66.400002 35.800003 63.699997 32 63.699997 26.300003 C 63.800003 20 66.099998 16.099998 70.5 16.099998 Z M 63.800003 12.400002 L 56.800003 12.400002 L 56.800003 53.100006 L 63.800003 53.100006 L 63.800003 36.100006 C 65.800003 38.5 68.5 40.100006 71.699997 40.100006 C 79.199997 40.100006 84 32.5 84 25.300003 C 84 19.300003 80.599998 11.700005 72.300003 11.700005 C 69.099998 11.700005 65.699997 13.300003 63.900002 16.099998 L 63.800003 16.099998 L 63.800003 12.400002 Z"/>
    <path id="path3" fill="#003c70" stroke="none" d="M 94 22.700005 C 93.900002 19.099998 95.699997 15.800003 99.800003 15.800003 C 103.300003 15.800003 104.699997 18.599998 104.399994 22.700005 L 94 22.700005 Z M 111 26.599998 C 111.5 18.5 108.100006 11.800003 99.900002 11.800003 C 92.400002 11.800003 86.400002 17.099998 86.400002 25.5 C 86.400002 34.400002 92.400002 40.200005 100.300003 40.200005 C 103.300003 40.200005 107.100006 39.300003 110.600006 37.200005 L 108.600006 33.400002 C 106.899994 34.599998 104.100006 35.600006 101.5 35.600006 C 97.099998 35.600006 93.599998 31.800003 93.800003 26.700005 L 111 26.700005 Z"/>
    <path id="path4" fill="#003c70" stroke="none" d="M 121.399994 17.200005 L 121.5 17.200005 L 122.899994 15.099998 C 123.699997 14 125.300003 11.800003 127.399994 11.800003 C 129 11.800003 130.699997 12.700005 132.199997 14.200005 L 129.600006 19.200005 C 128.399994 18.599998 127.699997 18.300003 126.300003 18.300003 C 123.899994 18.300003 121.5 20.300003 121.5 26.200005 L 121.5 39.600006 L 114.5 39.600006 L 114.5 12.400002 L 121.5 12.400002 L 121.5 17.200005 Z"/>
    <path id="path5" fill="#003c70" stroke="none" d="M 141.399994 12.400002 L 141.399994 39.5 L 134.399994 39.5 L 134.399994 12.400002 L 141.399994 12.400002 Z M 133.699997 4.300003 C 133.699997 2.199997 135.399994 0.099998 137.800003 0.099998 C 140.199997 0.099998 142.100006 2.199997 142.100006 4.300003 C 142.100006 6.599998 140.5 8.800003 137.899994 8.800003 C 135.399994 8.800003 133.699997 6.599998 133.699997 4.300003 Z"/>
    <path id="path6" fill="#003c70" stroke="none" d="M 160.5 23.800003 C 161 31.800003 157.399994 35.300003 154.600006 35.300003 C 152.899994 35.300003 151.399994 33.700005 151.399994 31.300003 C 151.399994 28.200005 153.100006 26.200005 156.600006 25.099998 L 160.5 23.800003 Z M 160.399994 35.5 C 160.399994 37 160.600006 38.5 161.100006 39.5 L 168.5 39.5 C 167.699997 37.600006 167.399994 35.099998 167.399994 32.900002 L 167.399994 21.800003 C 167.399994 13.300003 161.399994 11.700005 156.600006 11.700005 C 153 11.700005 149.699997 12.599998 146.5 15.400002 L 148.800003 18.800003 C 150.600006 17.200005 152.800003 16 155.800003 16 C 158.100006 16 160.199997 17.599998 160.600006 20.099998 L 154.399994 22 C 148.300003 23.800003 144.600006 26.700005 144.600006 31.900002 C 144.600006 36.900002 148 40.100006 152.100006 40.100006 C 154.5 40.100006 156.899994 38.400002 158.899994 36.800003 L 160.399994 35.5 Z"/>
    <path id="path7" fill="#003c70" stroke="none" d="M 171.800003 39.5 L 171.800003 -0.300003 L 178.800003 -0.300003 L 178.800003 39.5 L 171.800003 39.5 Z"/>
    <path id="path8" fill="#003c70" stroke="none" d="M 225.100006 8.400002 C 223.300003 7.400002 220.300003 6.300003 217.399994 6.300003 C 209.800003 6.300003 204.300003 11.800003 204.300003 20.400002 C 204.300003 29.400002 210.399994 34.700005 217.600006 34.700005 C 220.5 34.700005 223.100006 33.900002 225 32.800003 L 227.100006 37.5 C 224.800003 38.900002 220.899994 40.100006 217.300003 40.100006 C 204.5 40.100006 196.399994 31.400002 196.399994 20.300003 C 196.399994 9.900002 204.399994 0.900002 217.399994 0.900002 C 221.300003 0.900002 224.800003 2.300003 227.399994 3.800003 L 225.100006 8.400002 Z"/>
    <path id="path9" fill="#003c70" stroke="none" d="M 241.100006 36.100006 C 236.100006 36.100006 234.700012 30.400002 234.700012 25.599998 C 234.700012 21.099998 236.299988 15.700005 241.100006 15.700005 C 246 15.700005 247.5 21.099998 247.5 25.599998 C 247.5 30.400002 246.200012 36.100006 241.100006 36.100006 Z M 241.100006 40.200005 C 249.399994 40.200005 255 34.099998 255 25.700005 C 255 16.900002 248.299988 11.800003 241.100006 11.800003 C 234 11.800003 227.300003 16.900002 227.300003 25.700005 C 227.300003 34 232.799988 40.200005 241.100006 40.200005 Z"/>
    <path id="path10" fill="#003c70" stroke="none" d="M 258 39.5 L 258 -0.300003 L 265 -0.300003 L 265 39.5 L 258 39.5 Z"/>
    <path id="path11" fill="#003c70" stroke="none" d="M 269.399994 39.5 L 269.399994 -0.300003 L 276.399994 -0.300003 L 276.399994 39.5 L 269.399994 39.5 Z"/>
    <path id="path12" fill="#003c70" stroke="none" d="M 286.899994 22.700005 C 286.799988 19.099998 288.600006 15.800003 292.600006 15.800003 C 296.100006 15.800003 297.5 18.599998 297.200012 22.700005 L 286.899994 22.700005 Z M 303.899994 26.599998 C 304.399994 18.5 301 11.800003 292.799988 11.800003 C 285.299988 11.800003 279.299988 17.099998 279.299988 25.5 C 279.299988 34.400002 285.299988 40.200005 293.200012 40.200005 C 296.200012 40.200005 300 39.300003 303.5 37.200005 L 301.5 33.400002 C 299.799988 34.599998 297 35.600006 294.399994 35.600006 C 290 35.600006 286.5 31.800003 286.700012 26.700005 L 303.899994 26.700005 Z"/>
    <path id="path13" fill="#003c70" stroke="none" d="M 344.200012 22.700005 C 344.100006 19.099998 345.899994 15.800003 350 15.800003 C 353.5 15.800003 354.899994 18.599998 354.600006 22.700005 L 344.200012 22.700005 Z M 361.200012 26.599998 C 361.700012 18.5 358.299988 11.800003 350.100006 11.800003 C 342.600006 11.800003 336.600006 17.099998 336.600006 25.5 C 336.600006 34.400002 342.600006 40.200005 350.5 40.200005 C 353.5 40.200005 357.299988 39.300003 360.799988 37.200005 L 358.799988 33.400002 C 357.100006 34.599998 354.299988 35.600006 351.700012 35.600006 C 347.299988 35.600006 343.799988 31.800003 344 26.700005 L 361.200012 26.700005 Z"/>
    <path id="path14" fill="#003c70" stroke="none" d="M 320.299988 16.099998 C 324.5 16.099998 326.700012 20.5 326.700012 25.200005 C 326.700012 30.599998 324.700012 35.800003 320 35.800003 C 315.899994 35.800003 313.899994 30.700005 313.899994 25.400002 C 314 20.200005 315.799988 16.099998 320.299988 16.099998 Z M 333.700012 12.400002 L 326.700012 12.400002 L 326.700012 15.700005 L 326.600006 15.700005 C 325.100006 13.300003 322 11.700005 318.700012 11.700005 C 311.5 11.700005 306.5 18.5 306.5 25.599998 C 306.5 34.300003 311.100006 40.100006 318.100006 40.100006 C 322.100006 40.100006 324.899994 37.800003 326.600006 35.5 L 326.700012 35.5 L 326.700012 39.100006 C 326.700012 45.400002 323.100006 48.300003 318.5 48.300003 C 314.899994 48.300003 311.899994 47.600006 309.299988 46 L 307.899994 50.400002 C 311 52 315 53 319 53 C 326.899994 53 333.700012 49 333.700012 37 L 333.700012 12.400002 Z"/>
    <path id="path15" fill="#003c70" stroke="none" d="M 0.4 55.800003 L 7.900002 55.800003 L 7.900002 88.600006 L 23.700001 88.600006 L 23.700001 93.699997 L 0.4 93.699997 L 0.4 55.800003 Z"/>
    <path id="path16" fill="#003c70" stroke="none" d="M 64.800003 69.800003 C 67.300003 67.199997 70.800003 66 74.300003 66 C 80.800003 66 83.900002 69.5 83.900002 76.300003 L 83.900002 93.800003 L 76.800003 93.800003 L 76.800003 77.199997 C 76.800003 73.399994 75.099998 70.899994 71.199997 70.899994 C 67.599998 70.899994 64.800003 73.199997 64.800003 77.699997 L 64.800003 93.899994 L 57.699997 93.899994 L 57.699997 66.600006 L 64.699997 66.600006 L 64.699997 69.800003 Z"/>
    <path id="path17" fill="#003c70" stroke="none" d="M 102.199997 70.300003 C 106.600006 70.300003 108.899994 74.699997 108.899994 79.399994 C 108.899994 84.800003 106.800003 90 101.800003 90 C 97.5 90 95.400002 84.899994 95.400002 79.600006 C 95.400002 74.300003 97.400002 70.300003 102.199997 70.300003 Z M 108.899994 93.699997 L 116 93.699997 L 116 53.900002 L 108.899994 53.900002 L 108.899994 69.800003 L 108.800003 69.800003 C 107.100006 67.399994 103.899994 66 100.300003 66 C 92.900002 66 87.599998 72.800003 87.599998 79.899994 C 87.599998 88.600006 92.400002 94.399994 99.699997 94.399994 C 104 94.399994 106.899994 92.100006 108.699997 89.800003 L 108.800003 89.800003 L 108.800003 93.699997 Z"/>
    <path id="path18" fill="#003c70" stroke="none" d="M 134.300003 90.300003 C 129 90.300003 127.600006 84.600006 127.600006 79.800003 C 127.600006 75.300003 129.300003 69.899994 134.300003 69.899994 C 139.5 69.899994 141.100006 75.300003 141.100006 79.800003 C 141 84.600006 139.600006 90.300003 134.300003 90.300003 Z M 134.300003 94.399994 C 143 94.399994 148.899994 88.300003 148.899994 79.899994 C 148.899994 71.100006 141.800003 66 134.300003 66 C 126.899994 66 119.800003 71.100006 119.800003 79.899994 C 119.699997 88.199997 125.600006 94.399994 134.300003 94.399994 Z"/>
    <path id="path19" fill="#003c70" stroke="none" d="M 159.699997 69.800003 C 162.199997 67.199997 165.699997 66 169.199997 66 C 175.699997 66 178.800003 69.5 178.800003 76.300003 L 178.800003 93.800003 L 171.699997 93.800003 L 171.699997 77.199997 C 171.699997 73.399994 170 70.899994 166.100006 70.899994 C 162.5 70.899994 159.699997 73.199997 159.699997 77.699997 L 159.699997 93.899994 L 152.600006 93.899994 L 152.600006 66.600006 L 159.600006 66.600006 L 159.600006 69.800003 Z"/>
    <path id="path20" fill="#003c70" stroke="none" d="M 39.199997 90.300003 C 33.900002 90.300003 32.5 84.600006 32.5 79.800003 C 32.5 75.300003 34.200001 69.899994 39.199997 69.899994 C 44.400002 69.899994 46 75.300003 46 79.800003 C 46 84.600006 44.599998 90.300003 39.199997 90.300003 Z M 39.199997 94.399994 C 47.900002 94.399994 53.800003 88.300003 53.800003 79.899994 C 53.800003 71.100006 46.699997 66 39.199997 66 C 31.799999 66 24.700001 71.100006 24.700001 79.899994 C 24.700001 88.199997 30.599998 94.399994 39.199997 94.399994 Z"/>
</svg>
